<svg width="24" height="24" viewBox="0 0 24 24" fill="none" xmlns="http://www.w3.org/2000/svg">
<g id="Frame" clip-path="url(#clip0_7_285)">
<path id="Vector" d="M10 11.9993C10 12.5297 10.2107 13.0384 10.5858 13.4135C10.9609 13.7886 11.4696 13.9993 12 13.9993C12.5304 13.9993 13.0391 13.7886 13.4142 13.4135C13.7893 13.0384 14 12.5297 14 11.9993C14 11.4688 13.7893 10.9601 13.4142 10.5851C13.0391 10.21 12.5304 9.99927 12 9.99927C11.4696 9.99927 10.9609 10.21 10.5858 10.5851C10.2107 10.9601 10 11.4688 10 11.9993Z" stroke="#131318" stroke-opacity="0.5" stroke-width="1.5" stroke-linecap="round" stroke-linejoin="round"/>
<path id="Vector_2" d="M21 11.9993C18.6 15.9993 15.6 17.9993 12 17.9993C8.4 17.9993 5.4 15.9993 3 11.9993C5.4 7.99927 8.4 5.99927 12 5.99927C15.6 5.99927 18.6 7.99927 21 11.9993Z" stroke="#131318" stroke-opacity="0.5" stroke-width="1.5" stroke-linecap="round" stroke-linejoin="round"/>
</g>
<defs>
<clipPath id="clip0_7_285">
<rect width="24" height="24" fill="white" transform="translate(0 -0.000732422)"/>
</clipPath>
</defs>
</svg>
